<svg width="40" height="40" viewBox="0 0 40 40" fill="none" xmlns="http://www.w3.org/2000/svg">
<path d="M30.6734 4.99672C29.4117 3.74005 27.2117 3.74505 25.96 5.00505L22.9867 7.99005L19.31 11.6667H11.6667C11.3248 11.6665 10.991 11.7716 10.711 11.9679C10.431 12.1641 10.2182 12.4419 10.1017 12.7634L3.43505 31.0967C3.21338 31.7051 3.36505 32.3867 3.82172 32.8451L7.15505 36.1784C7.37914 36.403 7.66286 36.5588 7.97268 36.6274C8.2825 36.6959 8.60546 36.6743 8.90338 36.5651L27.2367 29.8984C27.5582 29.7819 27.836 29.5691 28.0322 29.2891C28.2285 29.0091 28.3336 28.6753 28.3334 28.3334V20.6901L32.0117 17.0117V17.0101H32.0134L35 14.0151C35.63 13.3851 35.9767 12.5467 35.975 11.6567C35.975 10.7651 35.6267 9.92672 34.995 9.29839L30.6734 4.99672ZM25.4884 18.8217C25.3333 18.9762 25.2103 19.1599 25.1265 19.3621C25.0427 19.5643 24.9997 19.7811 25 20.0001V27.1667L9.58505 32.7717L17.37 24.9867C17.4134 24.9884 17.4567 25.0001 17.5 25.0001C17.9945 25.0001 18.4779 24.8534 18.889 24.5787C19.3001 24.304 19.6205 23.9136 19.8097 23.4568C19.999 22.9999 20.0485 22.4973 19.952 22.0123C19.8555 21.5274 19.6174 21.0819 19.2678 20.7323C18.9182 20.3827 18.4727 20.1446 17.9878 20.0481C17.5028 19.9516 17.0002 20.0011 16.5433 20.1904C16.0865 20.3796 15.6961 20.7 15.4214 21.1111C15.1467 21.5223 15 22.0056 15 22.5001C15 22.5434 15.0117 22.5867 15.0134 22.6301L7.22838 30.4151L12.8334 15.0001H20C20.4434 15.0001 20.8667 14.8251 21.1784 14.5117L24.1667 11.5234L28.4767 15.8334L25.4884 18.8217ZM30.8317 13.4751L26.5217 9.16505L28.32 7.35839L32.6417 11.6601L30.8317 13.4751Z" fill="white"/>
</svg>
