<svg width="40" height="40" viewBox="0 0 40 40" fill="none" xmlns="http://www.w3.org/2000/svg">
<path d="M31.6666 21.6667V6.66671C31.6666 4.82837 30.1716 3.33337 28.3333 3.33337H11.6666C9.82829 3.33337 8.33329 4.82837 8.33329 6.66671V21.6667C7.89126 21.6667 7.46734 21.8423 7.15478 22.1549C6.84222 22.4674 6.66663 22.8913 6.66663 23.3334V36.6667H9.99996V28.3334H30V36.6667H33.3333V23.3334C33.3333 22.8913 33.1577 22.4674 32.8451 22.1549C32.5326 21.8423 32.1086 21.6667 31.6666 21.6667ZM28.3333 6.66671V21.6667H25V6.66671H28.3333ZM21.6666 6.66671V21.6667H18.3333V6.66671H21.6666ZM11.6666 6.66671H15V21.6667H11.6666V6.66671Z" fill="white"/>
</svg>
