<svg width="40" height="40" viewBox="0 0 40 40" fill="none" xmlns="http://www.w3.org/2000/svg">
<path d="M3.33337 16.2666L18.3334 12.1833V16.6666H11.6667C10.7827 16.6666 9.9348 17.0178 9.30968 17.6429C8.68456 18.268 8.33337 19.1159 8.33337 19.9999V33.3333C8.33337 34.2173 8.68456 35.0652 9.30968 35.6903C9.9348 36.3154 10.7827 36.6666 11.6667 36.6666H28.3334C29.2174 36.6666 30.0653 36.3154 30.6904 35.6903C31.3155 35.0652 31.6667 34.2173 31.6667 33.3333V19.9999C31.6667 19.1159 31.3155 18.268 30.6904 17.6429C30.0653 17.0178 29.2174 16.6666 28.3334 16.6666H21.6667V11.2666L36.6667 7.18328V3.73328L3.33337 12.8166V16.2666ZM18.3334 19.9999V24.9999H11.6667V19.9999H18.3334ZM28.3334 19.9999V33.3333H11.6667V28.3333H28.3334V24.9999H21.6667V19.9999H28.3334Z" fill="white"/>
</svg>
