<svg width="40" height="40" viewBox="0 0 40 40" fill="none" xmlns="http://www.w3.org/2000/svg">
<path d="M31.6667 21.6667V6.66671C31.6667 4.82837 30.1717 3.33337 28.3333 3.33337H11.6667C9.82834 3.33337 8.33334 4.82837 8.33334 6.66671V21.6667C7.89131 21.6667 7.46739 21.8423 7.15483 22.1549C6.84227 22.4674 6.66667 22.8913 6.66667 23.3334V36.6667H10V28.3334H30V36.6667H33.3333V23.3334C33.3333 22.8913 33.1577 22.4674 32.8452 22.1549C32.5326 21.8423 32.1087 21.6667 31.6667 21.6667ZM28.3333 6.66671V21.6667H25V6.66671H28.3333ZM21.6667 6.66671V21.6667H18.3333V6.66671H21.6667ZM11.6667 6.66671H15V21.6667H11.6667V6.66671Z" fill="white"/>
</svg>
